<svg xmlns="http://www.w3.org/2000/svg" xmlns:xlink="http://www.w3.org/1999/xlink" version="1.1" width="256" height="256" viewBox="0 0 256 256" xml:space="preserve">

<defs>
</defs>
<g style="stroke: none; stroke-width: 0; stroke-dasharray: none; stroke-linecap: butt; stroke-linejoin: miter; stroke-miterlimit: 10; fill: none; fill-rule: nonzero; opacity: 1;" transform="translate(1.4065934065934016 1.4065934065934016) scale(2.81 2.81)" >
	<circle cx="45" cy="45" r="45" style="stroke: none; stroke-width: 1; stroke-dasharray: none; stroke-linecap: butt; stroke-linejoin: miter; stroke-miterlimit: 10; fill: rgb(184,184,185); fill-rule: nonzero; opacity: 1;" transform="  matrix(1 0 0 1 0 0) "/>
	<path d="M 66.599 42.924 h -2.392 v -1.035 c 0 -2.434 -1.991 -4.425 -4.425 -4.425 H 17.925 c -2.434 0 -4.425 1.991 -4.425 4.425 v 12.557 c 0 2.434 1.991 4.425 4.425 4.425 h 41.857 c 2.434 0 4.425 -1.991 4.425 -4.425 V 53.41 h 2.392 c 1.962 0 3.568 -1.606 3.568 -3.568 v -3.35 C 70.167 44.529 68.561 42.924 66.599 42.924 z" style="stroke: none; stroke-width: 1; stroke-dasharray: none; stroke-linecap: butt; stroke-linejoin: miter; stroke-miterlimit: 10; fill: rgb(184,184,185); fill-rule: nonzero; opacity: 1;" transform=" matrix(1 0 0 1 0 0) " stroke-linecap="round" />
	<path d="M 59.782 60.37 H 17.925 c -3.267 0 -5.925 -2.658 -5.925 -5.925 V 41.888 c 0 -3.267 2.658 -5.925 5.925 -5.925 h 41.857 c 3.11 0 5.669 2.41 5.907 5.461 h 0.909 c 2.795 0 5.068 2.273 5.068 5.067 v 3.351 c 0 2.794 -2.273 5.067 -5.068 5.067 h -0.909 C 65.451 57.96 62.893 60.37 59.782 60.37 z M 17.925 38.963 c -1.613 0 -2.925 1.313 -2.925 2.925 v 12.557 c 0 1.612 1.313 2.925 2.925 2.925 h 41.857 c 1.612 0 2.925 -1.313 2.925 -2.925 v -1.036 c 0 -0.828 0.672 -1.5 1.5 -1.5 h 2.392 c 1.141 0 2.068 -0.928 2.068 -2.067 v -3.351 c 0 -1.14 -0.928 -2.067 -2.068 -2.067 h -2.392 c -0.828 0 -1.5 -0.671 -1.5 -1.5 v -1.036 c 0 -1.613 -1.313 -2.925 -2.925 -2.925 H 17.925 z" style="stroke: none; stroke-width: 1; stroke-dasharray: none; stroke-linecap: butt; stroke-linejoin: miter; stroke-miterlimit: 10; fill: rgb(184,184,185); fill-rule: nonzero; opacity: 1;" transform=" matrix(1 0 0 1 0 0) " stroke-linecap="round" />
	<path d="M 69.932 39.59 H 67.54 v -1.035 c 0 -2.434 -1.991 -4.425 -4.425 -4.425 H 21.259 c -2.434 0 -4.425 1.991 -4.425 4.425 v 12.557 c 0 2.434 1.991 4.425 4.425 4.425 h 41.857 c 2.434 0 4.425 -1.991 4.425 -4.425 v -1.035 h 2.392 c 1.962 0 3.568 -1.606 3.568 -3.568 v -3.35 C 73.5 41.196 71.894 39.59 69.932 39.59 z" style="stroke: none; stroke-width: 1; stroke-dasharray: none; stroke-linecap: butt; stroke-linejoin: miter; stroke-miterlimit: 10; fill: rgb(184,184,185); fill-rule: nonzero; opacity: 1;" transform=" matrix(1 0 0 1 0 0) " stroke-linecap="round" />
	<path d="M 63.115 57.037 H 21.259 c -3.267 0 -5.925 -2.658 -5.925 -5.926 V 38.555 c 0 -3.267 2.658 -5.925 5.925 -5.925 h 41.856 c 3.11 0 5.669 2.41 5.907 5.46 h 0.909 c 2.795 0 5.068 2.273 5.068 5.068 v 3.351 c 0 2.794 -2.273 5.067 -5.068 5.067 h -0.909 C 68.784 54.627 66.226 57.037 63.115 57.037 z M 21.259 35.63 c -1.613 0 -2.925 1.313 -2.925 2.925 v 12.556 c 0 1.613 1.313 2.926 2.925 2.926 h 41.856 c 1.612 0 2.925 -1.313 2.925 -2.926 v -1.035 c 0 -0.828 0.672 -1.5 1.5 -1.5 h 2.392 c 1.141 0 2.068 -0.928 2.068 -2.067 v -3.351 c 0 -1.14 -0.928 -2.068 -2.068 -2.068 H 67.54 c -0.828 0 -1.5 -0.671 -1.5 -1.5 v -1.035 c 0 -1.613 -1.313 -2.925 -2.925 -2.925 H 21.259 z" style="stroke: none; stroke-width: 1; stroke-dasharray: none; stroke-linecap: butt; stroke-linejoin: miter; stroke-miterlimit: 10; fill: rgb(184,184,185); fill-rule: nonzero; opacity: 1;" transform=" matrix(1 0 0 1 0 0) " stroke-linecap="round" />
</g>
</svg>