<svg xmlns="http://www.w3.org/2000/svg" xmlns:xlink="http://www.w3.org/1999/xlink" version="1.1" width="256" height="256" viewBox="0 0 256 256" xml:space="preserve">
<desc>Created with Fabric.js 1.7.22</desc>
<defs>
</defs>
<g transform="translate(128 128) scale(0.72 0.72)" style="">
	<g style="stroke: none; stroke-width: 0; stroke-dasharray: none; stroke-linecap: butt; stroke-linejoin: miter; stroke-miterlimit: 10; fill: none; fill-rule: nonzero; opacity: 1;" transform="translate(-175.05 -175.05000000000004) scale(3.89 3.89)" >
	<path d="M 75.123 90 H 14.877 c -0.552 0 -1 -0.447 -1 -1 V 69.022 c 0 -4.505 3.461 -8.357 8.23 -9.16 l 8.132 -1.37 c 2.666 -0.449 4.6 -2.56 4.6 -5.019 l 0.051 -2.131 c 0.013 -0.544 0.458 -0.976 0.999 -0.976 c 0.008 0 0.017 0 0.024 0 c 0.552 0.014 0.989 0.472 0.976 1.024 l -0.051 2.107 c 0 3.414 -2.636 6.355 -6.268 6.967 l -8.132 1.37 c -3.802 0.64 -6.562 3.662 -6.562 7.187 V 88 h 58.246 V 69.022 c 0 -3.525 -2.759 -6.547 -6.561 -7.187 l -8.132 -1.37 c -3.632 -0.612 -6.268 -3.552 -6.268 -6.992 l -0.049 -2.083 c -0.013 -0.553 0.425 -1.011 0.977 -1.023 c 0.522 -0.019 1.01 0.425 1.024 0.977 l 0.049 2.107 c 0 2.483 1.935 4.593 4.6 5.042 l 8.132 1.37 c 4.768 0.803 8.229 4.655 8.229 9.16 V 89 C 76.123 89.553 75.676 90 75.123 90 z" style="stroke: none; stroke-width: 1; stroke-dasharray: none; stroke-linecap: butt; stroke-linejoin: miter; stroke-miterlimit: 10; fill: rgb(0,0,0); fill-rule: nonzero; opacity: 1;" transform=" matrix(1 0 0 1 0 0) " stroke-linecap="round" />
	<path d="M 45.011 66.629 c -4.646 0 -9.295 -2.276 -13.915 -6.829 c -0.394 -0.387 -0.398 -1.021 -0.011 -1.414 c 0.388 -0.393 1.02 -0.398 1.414 -0.01 c 8.426 8.299 16.604 8.3 25.001 0.001 c 0.394 -0.39 1.026 -0.386 1.414 0.008 c 0.389 0.393 0.385 1.026 -0.008 1.414 C 54.3 64.353 49.657 66.629 45.011 66.629 z" style="stroke: none; stroke-width: 1; stroke-dasharray: none; stroke-linecap: butt; stroke-linejoin: miter; stroke-miterlimit: 10; fill: rgb(0,0,0); fill-rule: nonzero; opacity: 1;" transform=" matrix(1 0 0 1 0 0) " stroke-linecap="round" />
	<path d="M 27.216 90 c -0.532 0 -0.975 -0.419 -0.998 -0.956 c -0.016 -0.362 -0.014 -4.231 -0.009 -7.413 c 0.001 -0.875 -0.356 -1.716 -1.007 -2.367 c -0.744 -0.745 -1.808 -1.173 -2.919 -1.173 h -7.407 c -0.552 0 -1 -0.447 -1 -1 c 0 -0.553 0.448 -1 1 -1 h 7.407 c 1.638 0 3.218 0.642 4.335 1.76 c 1.028 1.029 1.593 2.373 1.591 3.783 c -0.006 4.336 -0.004 7.074 0.007 7.322 c 0.024 0.552 -0.403 1.019 -0.955 1.043 C 27.246 89.999 27.232 90 27.216 90 z" style="stroke: none; stroke-width: 1; stroke-dasharray: none; stroke-linecap: butt; stroke-linejoin: miter; stroke-miterlimit: 10; fill: rgb(0,0,0); fill-rule: nonzero; opacity: 1;" transform=" matrix(1 0 0 1 0 0) " stroke-linecap="round" />
	<path d="M 62.721 90 c -0.015 0 -0.03 -0.001 -0.045 -0.001 c -0.552 -0.024 -0.98 -0.491 -0.955 -1.043 c 0.011 -0.248 0.014 -2.986 0.007 -7.321 c -0.002 -1.411 0.564 -2.755 1.592 -3.785 c 1.117 -1.117 2.696 -1.759 4.334 -1.759 h 7.407 c 0.553 0 1 0.447 1 1 c 0 0.553 -0.447 1 -1 1 h -7.407 c -1.11 0 -2.175 0.428 -2.919 1.173 c -0.65 0.651 -1.008 1.492 -1.007 2.368 c 0.005 3.181 0.007 7.049 -0.009 7.412 C 63.696 89.581 63.253 90 62.721 90 z" style="stroke: none; stroke-width: 1; stroke-dasharray: none; stroke-linecap: butt; stroke-linejoin: miter; stroke-miterlimit: 10; fill: rgb(0,0,0); fill-rule: nonzero; opacity: 1;" transform=" matrix(1 0 0 1 0 0) " stroke-linecap="round" />
	<path d="M 62.087 28.082 c -0.175 0 -0.353 -0.046 -0.514 -0.143 c -0.474 -0.284 -0.627 -0.898 -0.343 -1.372 c 2.532 -4.223 3.29 -7.917 2.251 -10.982 c -1.157 -3.416 -4.614 -6.284 -10.27 -8.523 c -0.462 -0.183 -0.72 -0.678 -0.605 -1.162 c 0.224 -0.94 1.006 -1.821 2.421 -2.706 C 46.79 0.781 37.18 1.668 32.594 9.074 c -0.123 0.198 -0.31 0.347 -0.531 0.421 c -2.62 0.883 -4.472 2.581 -5.356 4.911 c -1.242 3.274 -0.487 7.587 2.126 12.145 c 0.274 0.48 0.109 1.09 -0.37 1.365 c -0.48 0.275 -1.09 0.108 -1.365 -0.37 c -2.916 -5.087 -3.719 -10.005 -2.26 -13.849 c 1.064 -2.804 3.22 -4.865 6.247 -5.978 C 36.758 -1.024 48.599 -1.449 57.91 2.05 c 0.378 0.142 0.634 0.497 0.647 0.9 c 0.015 0.403 -0.215 0.776 -0.581 0.944 c -1.611 0.74 -2.467 1.337 -2.921 1.766 c 5.578 2.408 9.048 5.527 10.321 9.283 c 1.236 3.646 0.418 7.903 -2.431 12.653 C 62.758 27.909 62.427 28.082 62.087 28.082 z" style="stroke: none; stroke-width: 1; stroke-dasharray: none; stroke-linecap: butt; stroke-linejoin: miter; stroke-miterlimit: 10; fill: rgb(0,0,0); fill-rule: nonzero; opacity: 1;" transform=" matrix(1 0 0 1 0 0) " stroke-linecap="round" />
	<path d="M 61.235 28.039 c -0.008 0 -0.016 0 -0.023 0 c -0.553 -0.013 -0.989 -0.471 -0.977 -1.023 c 0.066 -2.779 -0.383 -3.382 -0.522 -3.501 c -0.021 -0.018 -0.059 -0.048 -0.212 -0.019 c -3.678 0.574 -8.1 0.892 -13.22 -1.066 c -4.035 -1.689 -9.741 -3.7 -13.022 -1.791 c -1.791 1.042 -2.859 3.175 -3.264 6.52 c -0.066 0.549 -0.568 0.94 -1.113 0.873 c -0.548 -0.066 -0.939 -0.565 -0.873 -1.113 c 0.486 -4.011 1.875 -6.631 4.244 -8.009 c 4.004 -2.331 9.997 -0.335 14.77 1.663 c 4.641 1.774 8.581 1.507 12.138 0.952 c 0.878 -0.163 1.489 0.163 1.846 0.467 c 0.925 0.787 1.291 2.304 1.226 5.072 C 62.221 27.607 61.777 28.039 61.235 28.039 z" style="stroke: none; stroke-width: 1; stroke-dasharray: none; stroke-linecap: butt; stroke-linejoin: miter; stroke-miterlimit: 10; fill: rgb(0,0,0); fill-rule: nonzero; opacity: 1;" transform=" matrix(1 0 0 1 0 0) " stroke-linecap="round" />
	<path d="M 45 56.642 c -1.061 0 -2.105 -0.183 -3.102 -0.543 c -6.317 -2.283 -11.109 -7.522 -12.818 -14.013 c -0.141 -0.534 0.178 -1.081 0.712 -1.222 c 0.538 -0.14 1.081 0.178 1.222 0.712 c 1.543 5.856 5.866 10.582 11.564 12.642 c 1.558 0.563 3.287 0.563 4.846 0 c 5.699 -2.06 10.021 -6.786 11.564 -12.642 c 0.141 -0.535 0.689 -0.854 1.222 -0.712 c 0.534 0.141 0.853 0.688 0.712 1.222 c -1.71 6.492 -6.501 11.73 -12.818 14.014 C 47.105 56.459 46.061 56.642 45 56.642 z" style="stroke: none; stroke-width: 1; stroke-dasharray: none; stroke-linecap: butt; stroke-linejoin: miter; stroke-miterlimit: 10; fill: rgb(0,0,0); fill-rule: nonzero; opacity: 1;" transform=" matrix(1 0 0 1 0 0) " stroke-linecap="round" />
	<path d="M 45.017 48.837 c -1.533 0 -3.044 -0.344 -4.523 -1.031 c -0.501 -0.233 -0.718 -0.828 -0.485 -1.329 c 0.232 -0.501 0.828 -0.719 1.328 -0.485 c 2.443 1.135 4.899 1.132 7.511 -0.01 c 0.509 -0.22 1.096 0.011 1.316 0.516 c 0.222 0.506 -0.01 1.096 -0.516 1.316 C 48.09 48.496 46.543 48.837 45.017 48.837 z" style="stroke: none; stroke-width: 1; stroke-dasharray: none; stroke-linecap: butt; stroke-linejoin: miter; stroke-miterlimit: 10; fill: rgb(0,0,0); fill-rule: nonzero; opacity: 1;" transform=" matrix(1 0 0 1 0 0) " stroke-linecap="round" />
	<path d="M 62.018 42.83 H 27.983 c -2.005 0 -3.636 -1.631 -3.636 -3.636 v -9.518 c 0 -2.005 1.631 -3.636 3.636 -3.636 h 34.035 c 2.005 0 3.637 1.631 3.637 3.636 v 9.518 C 65.655 41.198 64.023 42.83 62.018 42.83 z M 27.983 28.039 c -0.902 0 -1.636 0.734 -1.636 1.636 v 9.518 c 0 0.902 0.734 1.636 1.636 1.636 h 34.035 c 0.902 0 1.637 -0.734 1.637 -1.636 v -9.518 c 0 -0.902 -0.734 -1.636 -1.637 -1.636 H 27.983 z" style="stroke: none; stroke-width: 1; stroke-dasharray: none; stroke-linecap: butt; stroke-linejoin: miter; stroke-miterlimit: 10; fill: rgb(0,0,0); fill-rule: nonzero; opacity: 1;" transform=" matrix(1 0 0 1 0 0) " stroke-linecap="round" />
	<path d="M 59.501 32.896 c -0.061 0 -0.13 -0.01 -0.19 -0.02 c -0.069 -0.01 -0.13 -0.03 -0.189 -0.06 c -0.061 -0.02 -0.12 -0.05 -0.181 -0.09 c -0.05 -0.04 -0.1 -0.08 -0.149 -0.12 c -0.181 -0.19 -0.29 -0.45 -0.29 -0.71 c 0 -0.26 0.109 -0.52 0.29 -0.71 c 0.05 -0.04 0.1 -0.09 0.149 -0.12 c 0.061 -0.04 0.12 -0.07 0.181 -0.09 c 0.06 -0.03 0.12 -0.05 0.189 -0.06 c 0.32 -0.07 0.67 0.04 0.9 0.27 c 0.18 0.19 0.29 0.44 0.29 0.71 c 0 0.26 -0.11 0.52 -0.29 0.71 c -0.05 0.04 -0.101 0.08 -0.16 0.12 c -0.05 0.04 -0.11 0.07 -0.17 0.09 c -0.061 0.03 -0.12 0.05 -0.19 0.06 C 59.631 32.886 59.561 32.896 59.501 32.896 z" style="stroke: none; stroke-width: 1; stroke-dasharray: none; stroke-linecap: butt; stroke-linejoin: miter; stroke-miterlimit: 10; fill: rgb(0,0,0); fill-rule: nonzero; opacity: 1;" transform=" matrix(1 0 0 1 0 0) " stroke-linecap="round" />
	<path d="M 52.501 32.895 H 30.499 c -0.552 0 -1 -0.448 -1 -1 c 0 -0.552 0.448 -1 1 -1 h 22.001 c 0.553 0 1 0.448 1 1 C 53.501 32.447 53.053 32.895 52.501 32.895 z" style="stroke: none; stroke-width: 1; stroke-dasharray: none; stroke-linecap: butt; stroke-linejoin: miter; stroke-miterlimit: 10; fill: rgb(0,0,0); fill-rule: nonzero; opacity: 1;" transform=" matrix(1 0 0 1 0 0) " stroke-linecap="round" />
</g>
</g>
</svg>