<svg xmlns="http://www.w3.org/2000/svg" xmlns:xlink="http://www.w3.org/1999/xlink" version="1.1" width="256" height="256" viewBox="0 0 256 256" xml:space="preserve">
<desc>Created with Fabric.js 1.7.22</desc>
<defs>
</defs>
<g transform="translate(128 128) scale(0.94 0.94)" style="">
	<g style="stroke: none; stroke-width: 0; stroke-dasharray: none; stroke-linecap: butt; stroke-linejoin: miter; stroke-miterlimit: 10; fill: none; fill-rule: nonzero; opacity: 1;" transform="translate(-134.55 -134.55000000000004) scale(2.99 2.99)" >
	<path d="M 63.475 11.851 h 11.228 c 2.116 0 3.831 1.715 3.831 3.831 v 70.487 c 0 2.116 -1.715 3.831 -3.831 3.831 H 15.297 c -2.116 0 -3.831 -1.715 -3.831 -3.831 V 15.682 c 0 -2.116 1.715 -3.831 3.831 -3.831 h 11.228" style="stroke: none; stroke-width: 1; stroke-dasharray: none; stroke-linecap: butt; stroke-linejoin: miter; stroke-miterlimit: 10; fill: rgb(57,57,57); fill-rule: nonzero; opacity: 1;" transform=" matrix(1 0 0 1 0 0) " stroke-linecap="round" />
	<polygon points="61.75,15.87 72.84,15.87 72.84,84.94 17.16,84.94 17.16,15.87 28.25,15.87 " style="stroke: none; stroke-width: 1; stroke-dasharray: none; stroke-linecap: butt; stroke-linejoin: miter; stroke-miterlimit: 10; fill: rgb(249,249,249); fill-rule: nonzero; opacity: 1;" transform="  matrix(1 0 0 1 0 0) "/>
	<path d="M 53.065 7.25 C 52.634 3.175 49.189 0 45 0 s -7.634 3.175 -8.065 7.25 h -4.728 c -3.138 0 -5.681 2.544 -5.681 5.681 v 5.883 h 36.949 v -5.883 c 0 -3.138 -2.544 -5.681 -5.681 -5.681 H 53.065 z" style="stroke: none; stroke-width: 1; stroke-dasharray: none; stroke-linecap: butt; stroke-linejoin: miter; stroke-miterlimit: 10; fill: rgb(157,157,157); fill-rule: nonzero; opacity: 1;" transform=" matrix(1 0 0 1 0 0) " stroke-linecap="round" />
	<path d="M 27.614 39.834 c -0.042 0 -0.085 -0.002 -0.128 -0.005 c -0.466 -0.04 -0.886 -0.295 -1.137 -0.689 l -3.097 -4.867 c -0.445 -0.699 -0.239 -1.626 0.46 -2.071 s 1.626 -0.238 2.071 0.46 l 2.043 3.21 l 5.845 -6.425 c 0.557 -0.614 1.505 -0.658 2.119 -0.1 c 0.613 0.557 0.658 1.506 0.1 2.119 l -7.166 7.878 C 28.438 39.657 28.034 39.834 27.614 39.834 z" style="stroke: none; stroke-width: 1; stroke-dasharray: none; stroke-linecap: butt; stroke-linejoin: miter; stroke-miterlimit: 10; fill: rgb(69,184,142); fill-rule: nonzero; opacity: 1;" transform=" matrix(1 0 0 1 0 0) " stroke-linecap="round" />
	<path d="M 27.614 58.919 c -0.042 0 -0.085 -0.002 -0.128 -0.006 c -0.466 -0.04 -0.886 -0.295 -1.137 -0.688 l -3.097 -4.867 c -0.445 -0.699 -0.239 -1.626 0.46 -2.071 c 0.699 -0.446 1.626 -0.239 2.071 0.46 l 2.043 3.211 l 5.845 -6.426 c 0.557 -0.613 1.505 -0.658 2.119 -0.1 c 0.613 0.558 0.658 1.506 0.1 2.119 l -7.166 7.878 C 28.438 58.742 28.034 58.919 27.614 58.919 z" style="stroke: none; stroke-width: 1; stroke-dasharray: none; stroke-linecap: butt; stroke-linejoin: miter; stroke-miterlimit: 10; fill: rgb(69,184,142); fill-rule: nonzero; opacity: 1;" transform=" matrix(1 0 0 1 0 0) " stroke-linecap="round" />
	<path d="M 27.614 78.003 c -0.042 0 -0.085 -0.002 -0.128 -0.006 c -0.466 -0.04 -0.886 -0.295 -1.137 -0.688 l -3.097 -4.867 c -0.445 -0.699 -0.239 -1.626 0.46 -2.071 c 0.699 -0.446 1.626 -0.238 2.071 0.46 l 2.043 3.211 l 5.845 -6.426 c 0.557 -0.612 1.505 -0.658 2.119 -0.1 c 0.613 0.558 0.658 1.506 0.1 2.119 l -7.166 7.878 C 28.438 77.826 28.034 78.003 27.614 78.003 z" style="stroke: none; stroke-width: 1; stroke-dasharray: none; stroke-linecap: butt; stroke-linejoin: miter; stroke-miterlimit: 10; fill: rgb(69,184,142); fill-rule: nonzero; opacity: 1;" transform=" matrix(1 0 0 1 0 0) " stroke-linecap="round" />
	<path d="M 65.483 36.256 H 42.254 c -0.829 0 -1.5 -0.671 -1.5 -1.5 s 0.671 -1.5 1.5 -1.5 h 23.229 c 0.828 0 1.5 0.671 1.5 1.5 S 66.312 36.256 65.483 36.256 z" style="stroke: none; stroke-width: 1; stroke-dasharray: none; stroke-linecap: butt; stroke-linejoin: miter; stroke-miterlimit: 10; fill: rgb(69,184,142); fill-rule: nonzero; opacity: 1;" transform=" matrix(1 0 0 1 0 0) " stroke-linecap="round" />
	<path d="M 65.483 55.34 H 42.254 c -0.829 0 -1.5 -0.672 -1.5 -1.5 s 0.671 -1.5 1.5 -1.5 h 23.229 c 0.828 0 1.5 0.672 1.5 1.5 S 66.312 55.34 65.483 55.34 z" style="stroke: none; stroke-width: 1; stroke-dasharray: none; stroke-linecap: butt; stroke-linejoin: miter; stroke-miterlimit: 10; fill: rgb(69,184,142); fill-rule: nonzero; opacity: 1;" transform=" matrix(1 0 0 1 0 0) " stroke-linecap="round" />
	<path d="M 65.483 74.425 H 42.254 c -0.829 0 -1.5 -0.672 -1.5 -1.5 s 0.671 -1.5 1.5 -1.5 h 23.229 c 0.828 0 1.5 0.672 1.5 1.5 S 66.312 74.425 65.483 74.425 z" style="stroke: none; stroke-width: 1; stroke-dasharray: none; stroke-linecap: butt; stroke-linejoin: miter; stroke-miterlimit: 10; fill: rgb(69,184,142); fill-rule: nonzero; opacity: 1;" transform=" matrix(1 0 0 1 0 0) " stroke-linecap="round" />
</g>
</g>
</svg>