<svg xmlns="http://www.w3.org/2000/svg" xmlns:xlink="http://www.w3.org/1999/xlink" version="1.1" width="256" height="256" viewBox="0 0 256 256" xml:space="preserve">
<desc>Created with Fabric.js 1.7.22</desc>
<defs>
</defs>
<g transform="translate(128 128) scale(0.72 0.72)" style="">
	<g style="stroke: none; stroke-width: 0; stroke-dasharray: none; stroke-linecap: butt; stroke-linejoin: miter; stroke-miterlimit: 10; fill: none; fill-rule: nonzero; opacity: 1;" transform="translate(-175.05 -175.05000000000004) scale(3.89 3.89)" >
	<circle cx="45" cy="45" r="45" style="stroke: none; stroke-width: 1; stroke-dasharray: none; stroke-linecap: butt; stroke-linejoin: miter; stroke-miterlimit: 10; fill: rgb(255,255,255); fill-rule: nonzero; opacity: 1;" transform="  matrix(1 0 0 1 0 0) "/>
	<path d="M 45 54.287 c -8.9 0 -16.14 -7.24 -16.14 -16.14 S 36.1 22.007 45 22.007 c 8.899 0 16.14 7.241 16.14 16.14 S 53.899 54.287 45 54.287 z" style="stroke: none; stroke-width: 1; stroke-dasharray: none; stroke-linecap: butt; stroke-linejoin: miter; stroke-miterlimit: 10; fill: rgb(68,184,142); fill-rule: nonzero; opacity: 1;" transform=" matrix(1 0 0 1 0 0) " stroke-linecap="round" />
	<path d="M 72.957 71.22 c -3.177 -5.75 -8.143 -10.477 -14.049 -13.341 c -2.008 -0.974 -4.352 -0.959 -6.436 0.041 c -2.343 1.126 -4.857 1.696 -7.473 1.696 c -2.616 0 -5.13 -0.571 -7.473 -1.696 c -2.081 -0.999 -4.426 -1.015 -6.435 -0.041 c -5.906 2.864 -10.872 7.59 -14.05 13.341 C 23.877 78.957 33.865 83.843 45 83.843 C 56.135 83.843 66.123 78.957 72.957 71.22 z" style="stroke: none; stroke-width: 1; stroke-dasharray: none; stroke-linecap: butt; stroke-linejoin: miter; stroke-miterlimit: 10; fill: rgb(68,184,142); fill-rule: nonzero; opacity: 1;" transform=" matrix(1 0 0 1 0 0) " stroke-linecap="round" />
</g>
</g>
</svg>